Coordinates
version=1
nRows=29
nColumns=19
inDegrees=yes

Units are S.I. units (second, meters, Newtons, ...)
Angles are in degrees.

endheader
time	ground_force_vx	ground_force_vy	ground_force_vz	ground_force_px	ground_force_py	ground_force_pz	1_ground_force_vx	1_ground_force_vy	1_ground_force_vz	1_ground_force_px	1_ground_force_py	1_ground_force_pz	ground_torque_x	ground_torque_y	ground_torque_z	1_ground_torque_x	1_ground_torque_y	1_ground_torque_z
0.5600	13.021	-2.791	-2.342	-0.236	0.000	0.399	-3.691	2.576	-2.277	-0.213	0.000	0.253	0.00000	3.61685	0.00000	0.00000	9.99448	0.00000
0.5625	12.976	-2.093	-2.166	-0.233	0.000	0.392	-3.475	2.578	-1.840	-0.214	0.000	0.251	0.00000	5.13661	0.00000	0.00000	10.23934	0.00000
0.5650	12.885	-0.012	-2.214	-0.201	0.000	0.355	-3.605	2.405	-1.973	-0.214	0.000	0.251	0.00000	1041.94029	0.00000	0.00000	10.85565	0.00000
0.5675	12.450	-1.044	-2.385	-0.245	0.000	0.398	-3.952	3.950	-2.409	-0.215	0.000	0.247	0.00000	8.77170	0.00000	0.00000	7.89619	0.00000
0.5700	13.106	-0.532	-2.521	-0.214	0.000	0.400	-3.693	2.917	-2.148	-0.213	0.000	0.250	0.00000	16.55714	0.00000	0.00000	9.25743	0.00000
0.5725	12.932	-1.222	-2.651	-0.237	0.000	0.411	-3.734	3.432	-2.452	-0.214	0.000	0.250	0.00000	6.61037	0.00000	0.00000	8.00179	0.00000
0.5750	12.539	-1.219	-2.340	-0.235	0.000	0.418	-3.778	2.745	-2.455	-0.211	0.000	0.250	0.00000	5.85428	0.00000	0.00000	9.04061	0.00000
0.5775	13.019	-1.751	-2.697	-0.232	0.000	0.397	-3.691	2.404	-2.236	-0.214	0.000	0.250	0.00000	5.46134	0.00000	0.00000	10.39280	0.00000
0.5800	12.931	-1.925	-2.565	-0.229	0.000	0.395	-3.519	2.063	-1.798	-0.213	0.000	0.252	0.00000	5.04663	0.00000	0.00000	12.23083	0.00000
0.5825	13.152	-1.577	-2.566	-0.232	0.000	0.395	-3.519	2.062	-1.973	-0.212	0.000	0.252	0.00000	6.33698	0.00000	0.00000	11.60889	0.00000
0.5850	12.887	-1.917	-2.782	-0.237	0.000	0.417	-3.820	3.605	-2.453	-0.215	0.000	0.248	0.00000	3.84232	0.00000	0.00000	7.94360	0.00000
0.5875	13.197	-1.924	-2.566	-0.242	0.000	0.395	-3.561	2.750	-1.971	-0.214	0.000	0.251	0.00000	5.37833	0.00000	0.00000	9.87346	0.00000
0.5900	13.153	-1.230	-2.479	-0.236	0.000	0.384	-3.693	1.374	-2.063	-0.212	0.000	0.253	0.00000	9.04812	0.00000	0.00000	16.34028	0.00000
0.5925	12.842	-0.183	-2.698	-0.223	0.000	0.383	-3.864	3.433	-2.497	-0.214	0.000	0.249	0.00000	54.82806	0.00000	0.00000	8.20352	0.00000
0.5950	13.283	-1.757	-2.656	-0.227	0.000	0.386	-3.777	3.094	-2.233	-0.215	0.000	0.250	0.00000	6.16944	0.00000	0.00000	9.25286	0.00000
0.5975	13.240	-1.926	-2.565	-0.225	0.000	0.408	-3.518	1.889	-2.061	-0.213	0.000	0.252	0.00000	4.41728	0.00000	0.00000	12.12374	0.00000
0.6000	13.240	-1.056	-2.699	-0.229	0.000	0.405	-4.083	3.604	-2.452	-0.214	0.000	0.251	0.00000	8.20383	0.00000	0.00000	8.71298	0.00000
0.6025	13.329	-1.227	-2.609	-0.228	0.000	0.423	-3.777	3.777	-2.408	-0.215	0.000	0.248	0.00000	5.72171	0.00000	0.00000	7.77208	0.00000
0.6050	13.240	-0.878	-2.698	-0.236	0.000	0.402	-3.820	3.604	-2.540	-0.214	0.000	0.249	0.00000	10.35030	0.00000	0.00000	7.80248	0.00000
0.6075	12.931	-0.705	-2.830	-0.230	0.000	0.398	-3.778	3.259	-2.453	-0.213	0.000	0.249	0.00000	12.62580	0.00000	0.00000	8.24144	0.00000
0.6100	13.237	-0.363	-2.789	-0.215	0.000	0.389	-3.821	3.603	-2.451	-0.215	0.000	0.250	0.00000	26.72370	0.00000	0.00000	8.09323	0.00000
0.6125	13.196	-0.535	-2.524	-0.221	0.000	0.388	-3.863	3.435	-2.496	-0.213	0.000	0.250	0.00000	18.96414	0.00000	0.00000	8.27933	0.00000
0.6150	13.812	-1.584	-2.658	-0.235	0.000	0.386	-3.560	2.405	-2.146	-0.215	0.000	0.252	0.00000	7.35669	0.00000	0.00000	10.40045	0.00000
0.6175	13.634	-1.584	-2.790	-0.231	0.000	0.385	-3.474	2.061	-1.971	-0.215	0.000	0.253	0.00000	7.16163	0.00000	0.00000	11.80443	0.00000
0.6200	12.934	-1.572	-2.697	-0.248	0.000	0.408	-3.910	4.463	-2.231	-0.216	0.000	0.249	0.00000	5.47612	0.00000	0.00000	7.65182	0.00000
0.6225	13.194	-0.711	-2.878	-0.229	0.000	0.380	-3.689	3.774	-2.625	-0.216	0.000	0.249	0.00000	15.24886	0.00000	0.00000	7.24050	0.00000
0.6250	13.373	-0.708	-2.700	-0.237	0.000	0.396	-3.821	3.432	-2.541	-0.213	0.000	0.248	0.00000	13.78108	0.00000	0.00000	7.92057	0.00000
0.6275	13.458	-0.018	-2.923	-0.221	0.000	0.391	-3.777	2.745	-2.541	-0.213	0.000	0.251	0.00000	549.86079	0.00000	0.00000	9.05700	0.00000
0.6300	13.548	-1.405	-2.656	-0.236	0.000	0.397	-3.907	2.919	-2.543	-0.213	0.000	0.249	0.00000	7.21196	0.00000	0.00000	8.97112	0.00000
